<svg width="28" height="28" viewBox="0 0 28 28" fill="none" xmlns="http://www.w3.org/2000/svg">
<path d="M14.07 18.585L14 18.655L13.923 18.585C10.598 15.568 8.4 13.573 8.4 11.55C8.4 10.15 9.45 9.10001 10.85 9.10001C11.928 9.10001 12.978 9.80001 13.349 10.752H14.651C15.022 9.80001 16.072 9.10001 17.15 9.10001C18.55 9.10001 19.6 10.15 19.6 11.55C19.6 13.573 17.402 15.568 14.07 18.585ZM17.15 7.70001C15.932 7.70001 14.763 8.26701 14 9.15601C13.237 8.26701 12.068 7.70001 10.85 7.70001C8.694 7.70001 7 9.38701 7 11.55C7 14.189 9.38 16.352 12.985 19.621L14 20.545L15.015 19.621C18.62 16.352 21 14.189 21 11.55C21 9.38701 19.306 7.70001 17.15 7.70001Z" fill="#2979FF"/>
</svg>
